<mxfile host="app.diagrams.net" agent="Mozilla/5.0 (Windows NT 10.0; Win64; x64) AppleWebKit/537.36 (KHTML, like Gecko) Chrome/134.0.0.0 Safari/537.36" version="26.2.9">
  <diagram id="C5RBs43oDa-KdzZeNtuy" name="Page-1">
    <mxGraphModel dx="3260" dy="2467" grid="1" gridSize="10" guides="1" tooltips="1" connect="1" arrows="1" fold="1" page="1" pageScale="1" pageWidth="827" pageHeight="1169" math="0" shadow="0">
      <root>
        <mxCell id="WIyWlLk6GJQsqaUBKTNV-0" />
        <mxCell id="WIyWlLk6GJQsqaUBKTNV-1" parent="WIyWlLk6GJQsqaUBKTNV-0" />
        <mxCell id="m1Tm88HCIvqebnnqDE_D-38" style="edgeStyle=orthogonalEdgeStyle;rounded=0;orthogonalLoop=1;jettySize=auto;html=1;exitX=0.5;exitY=1;exitDx=0;exitDy=0;entryX=0.5;entryY=0;entryDx=0;entryDy=0;" edge="1" parent="WIyWlLk6GJQsqaUBKTNV-1" source="m1Tm88HCIvqebnnqDE_D-0" target="m1Tm88HCIvqebnnqDE_D-37">
          <mxGeometry relative="1" as="geometry" />
        </mxCell>
        <mxCell id="m1Tm88HCIvqebnnqDE_D-0" value="Alpha Signal Evaluator" style="swimlane;whiteSpace=wrap;html=1;" vertex="1" parent="WIyWlLk6GJQsqaUBKTNV-1">
          <mxGeometry x="-60" y="240" width="225" height="120" as="geometry" />
        </mxCell>
        <mxCell id="m1Tm88HCIvqebnnqDE_D-33" value="Evaluates Direction Signal&lt;div&gt;and Magnitude Signal for&lt;/div&gt;&lt;div&gt;(Projected Long *&amp;nbsp; Prob of Long Mag)&lt;/div&gt;&lt;div&gt;(Projected Short * Prob of Short Mag)&lt;/div&gt;" style="text;html=1;align=center;verticalAlign=middle;resizable=0;points=[];autosize=1;strokeColor=none;fillColor=none;" vertex="1" parent="m1Tm88HCIvqebnnqDE_D-0">
          <mxGeometry x="5" y="25" width="220" height="70" as="geometry" />
        </mxCell>
        <mxCell id="m1Tm88HCIvqebnnqDE_D-1" value="&amp;nbsp;Entry Risk Model" style="swimlane;whiteSpace=wrap;html=1;startSize=23;" vertex="1" parent="WIyWlLk6GJQsqaUBKTNV-1">
          <mxGeometry x="270" y="450" width="160" height="120" as="geometry" />
        </mxCell>
        <mxCell id="m1Tm88HCIvqebnnqDE_D-27" value="Evaluates Open&amp;nbsp;&lt;div&gt;Position Risk and&amp;nbsp;&lt;/div&gt;&lt;div&gt;Drawdown&lt;/div&gt;" style="text;html=1;align=center;verticalAlign=middle;resizable=0;points=[];autosize=1;strokeColor=none;fillColor=none;" vertex="1" parent="m1Tm88HCIvqebnnqDE_D-1">
          <mxGeometry x="20" y="40" width="120" height="60" as="geometry" />
        </mxCell>
        <mxCell id="m1Tm88HCIvqebnnqDE_D-2" value="Historical Symbol Evaluation" style="shape=cylinder3;whiteSpace=wrap;html=1;boundedLbl=1;backgroundOutline=1;size=15;" vertex="1" parent="WIyWlLk6GJQsqaUBKTNV-1">
          <mxGeometry x="860" y="10" width="100" height="100" as="geometry" />
        </mxCell>
        <mxCell id="m1Tm88HCIvqebnnqDE_D-4" value="DB DAO" style="swimlane;whiteSpace=wrap;html=1;" vertex="1" parent="WIyWlLk6GJQsqaUBKTNV-1">
          <mxGeometry x="610" y="-60" width="80" height="70" as="geometry" />
        </mxCell>
        <mxCell id="m1Tm88HCIvqebnnqDE_D-6" value="" style="endArrow=classic;html=1;rounded=0;exitX=1;exitY=0.5;exitDx=0;exitDy=0;entryX=0;entryY=0;entryDx=0;entryDy=32.5;entryPerimeter=0;" edge="1" parent="WIyWlLk6GJQsqaUBKTNV-1" source="m1Tm88HCIvqebnnqDE_D-4" target="m1Tm88HCIvqebnnqDE_D-2">
          <mxGeometry width="50" height="50" relative="1" as="geometry">
            <mxPoint x="640" y="290" as="sourcePoint" />
            <mxPoint x="830" y="20" as="targetPoint" />
            <Array as="points" />
          </mxGeometry>
        </mxCell>
        <mxCell id="m1Tm88HCIvqebnnqDE_D-24" style="edgeStyle=orthogonalEdgeStyle;rounded=0;orthogonalLoop=1;jettySize=auto;html=1;entryX=0.5;entryY=0;entryDx=0;entryDy=0;exitX=0;exitY=0.75;exitDx=0;exitDy=0;" edge="1" parent="WIyWlLk6GJQsqaUBKTNV-1" source="m1Tm88HCIvqebnnqDE_D-71" target="m1Tm88HCIvqebnnqDE_D-12">
          <mxGeometry relative="1" as="geometry">
            <mxPoint x="250" y="-49" as="sourcePoint" />
          </mxGeometry>
        </mxCell>
        <mxCell id="m1Tm88HCIvqebnnqDE_D-30" style="edgeStyle=orthogonalEdgeStyle;rounded=0;orthogonalLoop=1;jettySize=auto;html=1;exitX=0.25;exitY=1;exitDx=0;exitDy=0;entryX=0.25;entryY=0;entryDx=0;entryDy=0;" edge="1" parent="WIyWlLk6GJQsqaUBKTNV-1" source="m1Tm88HCIvqebnnqDE_D-12" target="m1Tm88HCIvqebnnqDE_D-0">
          <mxGeometry relative="1" as="geometry" />
        </mxCell>
        <mxCell id="m1Tm88HCIvqebnnqDE_D-12" value="Alpha Direction Projection Model" style="swimlane;whiteSpace=wrap;html=1;startSize=40;" vertex="1" parent="WIyWlLk6GJQsqaUBKTNV-1">
          <mxGeometry x="20" y="60" width="135" height="120" as="geometry" />
        </mxCell>
        <mxCell id="m1Tm88HCIvqebnnqDE_D-16" value="Defines the Probability&lt;div&gt;of Market Direction in&lt;/div&gt;&lt;div&gt;Up % and Down %&lt;/div&gt;" style="text;html=1;align=center;verticalAlign=middle;resizable=0;points=[];autosize=1;strokeColor=none;fillColor=none;" vertex="1" parent="m1Tm88HCIvqebnnqDE_D-12">
          <mxGeometry x="-5" y="40" width="140" height="60" as="geometry" />
        </mxCell>
        <mxCell id="m1Tm88HCIvqebnnqDE_D-15" style="edgeStyle=orthogonalEdgeStyle;rounded=0;orthogonalLoop=1;jettySize=auto;html=1;entryX=0.5;entryY=0;entryDx=0;entryDy=0;exitX=0.879;exitY=0.996;exitDx=0;exitDy=0;exitPerimeter=0;" edge="1" parent="WIyWlLk6GJQsqaUBKTNV-1" source="m1Tm88HCIvqebnnqDE_D-52" target="m1Tm88HCIvqebnnqDE_D-4">
          <mxGeometry relative="1" as="geometry">
            <mxPoint x="367.5" y="-80" as="sourcePoint" />
          </mxGeometry>
        </mxCell>
        <mxCell id="m1Tm88HCIvqebnnqDE_D-17" value="Alpha Magnitude Projection Model" style="swimlane;whiteSpace=wrap;html=1;startSize=40;" vertex="1" parent="WIyWlLk6GJQsqaUBKTNV-1">
          <mxGeometry x="300" y="60" width="135" height="120" as="geometry" />
        </mxCell>
        <mxCell id="m1Tm88HCIvqebnnqDE_D-18" value="Defines the Probability&lt;div&gt;of Price Action&lt;/div&gt;&lt;div&gt;Magnitude&lt;/div&gt;" style="text;html=1;align=center;verticalAlign=middle;resizable=0;points=[];autosize=1;strokeColor=none;fillColor=none;" vertex="1" parent="m1Tm88HCIvqebnnqDE_D-17">
          <mxGeometry x="-5" y="40" width="140" height="60" as="geometry" />
        </mxCell>
        <mxCell id="m1Tm88HCIvqebnnqDE_D-20" value="For Alpha Models, start with simple historical indicators and ML - 3EMA for Direction and Vol for Magnitude" style="shape=callout;whiteSpace=wrap;html=1;perimeter=calloutPerimeter;position2=1;base=30;size=30;position=0.58;" vertex="1" parent="WIyWlLk6GJQsqaUBKTNV-1">
          <mxGeometry x="-120" y="-20" width="130" height="130" as="geometry" />
        </mxCell>
        <mxCell id="m1Tm88HCIvqebnnqDE_D-26" style="edgeStyle=orthogonalEdgeStyle;rounded=0;orthogonalLoop=1;jettySize=auto;html=1;entryX=0.457;entryY=0.008;entryDx=0;entryDy=0;entryPerimeter=0;" edge="1" parent="WIyWlLk6GJQsqaUBKTNV-1" target="m1Tm88HCIvqebnnqDE_D-17">
          <mxGeometry relative="1" as="geometry">
            <mxPoint x="362" y="-10" as="sourcePoint" />
            <Array as="points">
              <mxPoint x="363" y="-10" />
              <mxPoint x="363" y="20" />
              <mxPoint x="362" y="20" />
            </Array>
          </mxGeometry>
        </mxCell>
        <mxCell id="m1Tm88HCIvqebnnqDE_D-32" style="edgeStyle=orthogonalEdgeStyle;rounded=0;orthogonalLoop=1;jettySize=auto;html=1;exitX=0.25;exitY=1;exitDx=0;exitDy=0;entryX=0.813;entryY=-0.017;entryDx=0;entryDy=0;entryPerimeter=0;" edge="1" parent="WIyWlLk6GJQsqaUBKTNV-1" source="m1Tm88HCIvqebnnqDE_D-17" target="m1Tm88HCIvqebnnqDE_D-0">
          <mxGeometry relative="1" as="geometry" />
        </mxCell>
        <mxCell id="m1Tm88HCIvqebnnqDE_D-35" value="Position Sizing Model" style="swimlane;whiteSpace=wrap;html=1;" vertex="1" parent="WIyWlLk6GJQsqaUBKTNV-1">
          <mxGeometry x="-340" y="450" width="167.5" height="120" as="geometry" />
        </mxCell>
        <mxCell id="m1Tm88HCIvqebnnqDE_D-36" value="Uses Kelly to Set Position Size&amp;nbsp;" style="text;html=1;align=center;verticalAlign=middle;whiteSpace=wrap;rounded=0;" vertex="1" parent="m1Tm88HCIvqebnnqDE_D-35">
          <mxGeometry x="28.75" y="30" width="110" height="70" as="geometry" />
        </mxCell>
        <mxCell id="m1Tm88HCIvqebnnqDE_D-37" value="Entry Decision Model" style="swimlane;whiteSpace=wrap;html=1;" vertex="1" parent="WIyWlLk6GJQsqaUBKTNV-1">
          <mxGeometry x="-67.5" y="450" width="240" height="120" as="geometry" />
        </mxCell>
        <mxCell id="m1Tm88HCIvqebnnqDE_D-43" value="Evaluate Signal and Risk.&lt;div&gt;Define final position based&lt;/div&gt;&lt;div&gt;on Kelly and Portfolio Risk Profile&lt;/div&gt;" style="text;html=1;align=center;verticalAlign=middle;resizable=0;points=[];autosize=1;strokeColor=none;fillColor=none;" vertex="1" parent="m1Tm88HCIvqebnnqDE_D-37">
          <mxGeometry x="17.5" y="35" width="200" height="60" as="geometry" />
        </mxCell>
        <mxCell id="m1Tm88HCIvqebnnqDE_D-76" value="" style="endArrow=classic;html=1;rounded=0;entryX=0.5;entryY=0;entryDx=0;entryDy=0;" edge="1" parent="m1Tm88HCIvqebnnqDE_D-37" target="m1Tm88HCIvqebnnqDE_D-68">
          <mxGeometry width="50" height="50" relative="1" as="geometry">
            <mxPoint x="117.5" y="120" as="sourcePoint" />
            <mxPoint x="167.5" y="70" as="targetPoint" />
          </mxGeometry>
        </mxCell>
        <mxCell id="m1Tm88HCIvqebnnqDE_D-41" value="" style="endArrow=classic;startArrow=classic;html=1;rounded=0;exitX=1;exitY=0.5;exitDx=0;exitDy=0;entryX=0;entryY=0.5;entryDx=0;entryDy=0;" edge="1" parent="WIyWlLk6GJQsqaUBKTNV-1" source="m1Tm88HCIvqebnnqDE_D-35" target="m1Tm88HCIvqebnnqDE_D-37">
          <mxGeometry width="50" height="50" relative="1" as="geometry">
            <mxPoint x="-180" y="520" as="sourcePoint" />
            <mxPoint x="-70" y="520" as="targetPoint" />
          </mxGeometry>
        </mxCell>
        <mxCell id="m1Tm88HCIvqebnnqDE_D-42" value="" style="endArrow=classic;startArrow=classic;html=1;rounded=0;" edge="1" parent="WIyWlLk6GJQsqaUBKTNV-1">
          <mxGeometry width="50" height="50" relative="1" as="geometry">
            <mxPoint x="172.5" y="520" as="sourcePoint" />
            <mxPoint x="270" y="520" as="targetPoint" />
          </mxGeometry>
        </mxCell>
        <mxCell id="m1Tm88HCIvqebnnqDE_D-44" value="Broker Account DAO" style="swimlane;whiteSpace=wrap;html=1;" vertex="1" parent="WIyWlLk6GJQsqaUBKTNV-1">
          <mxGeometry x="430" y="630" width="160" height="120" as="geometry" />
        </mxCell>
        <mxCell id="m1Tm88HCIvqebnnqDE_D-45" value="Broker Symbol DAO" style="swimlane;whiteSpace=wrap;html=1;" vertex="1" parent="WIyWlLk6GJQsqaUBKTNV-1">
          <mxGeometry x="177.5" y="-460" width="122.5" height="120" as="geometry" />
        </mxCell>
        <mxCell id="m1Tm88HCIvqebnnqDE_D-46" value="[Symbol][TimeFrame]EstimationData" style="swimlane;fontStyle=0;childLayout=stackLayout;horizontal=1;startSize=30;horizontalStack=0;resizeParent=1;resizeParentMax=0;resizeLast=0;collapsible=1;marginBottom=0;whiteSpace=wrap;html=1;container=0;" vertex="1" parent="WIyWlLk6GJQsqaUBKTNV-1">
          <mxGeometry x="870" y="-200" width="240" height="160" as="geometry" />
        </mxCell>
        <mxCell id="m1Tm88HCIvqebnnqDE_D-50" value="DirectionForeCastingEngine" style="swimlane;whiteSpace=wrap;html=1;" vertex="1" parent="WIyWlLk6GJQsqaUBKTNV-1">
          <mxGeometry x="430" y="-310" width="190" height="120" as="geometry" />
        </mxCell>
        <mxCell id="m1Tm88HCIvqebnnqDE_D-52" value="Using a 3 EMA Indicator + ATR&amp;nbsp;&lt;div&gt;a simple ML Algorithm e.g.&lt;/div&gt;&lt;div&gt;Regression or Bayesian&amp;nbsp;&lt;/div&gt;&lt;div&gt;Analysis to Predict Direction&lt;/div&gt;&lt;div&gt;of Next Bar in TimeFrame&lt;/div&gt;" style="text;html=1;align=center;verticalAlign=middle;resizable=0;points=[];autosize=1;strokeColor=none;fillColor=none;" vertex="1" parent="m1Tm88HCIvqebnnqDE_D-50">
          <mxGeometry y="30" width="190" height="90" as="geometry" />
        </mxCell>
        <mxCell id="m1Tm88HCIvqebnnqDE_D-51" value="MagnitudeForecastingEngine" style="swimlane;whiteSpace=wrap;html=1;" vertex="1" parent="WIyWlLk6GJQsqaUBKTNV-1">
          <mxGeometry x="630" y="-400" width="190" height="120" as="geometry" />
        </mxCell>
        <mxCell id="m1Tm88HCIvqebnnqDE_D-53" value="Using Volume and Average&lt;div&gt;True Range to Predict Magnitude&lt;/div&gt;&lt;div&gt;of Price Movement on Next Bar&lt;/div&gt;" style="text;html=1;align=center;verticalAlign=middle;resizable=0;points=[];autosize=1;strokeColor=none;fillColor=none;" vertex="1" parent="m1Tm88HCIvqebnnqDE_D-51">
          <mxGeometry x="-10" y="45" width="200" height="60" as="geometry" />
        </mxCell>
        <mxCell id="m1Tm88HCIvqebnnqDE_D-54" value="" style="endArrow=classic;html=1;rounded=0;exitX=1;exitY=0.75;exitDx=0;exitDy=0;entryX=0.5;entryY=0;entryDx=0;entryDy=0;" edge="1" parent="WIyWlLk6GJQsqaUBKTNV-1" source="m1Tm88HCIvqebnnqDE_D-45" target="m1Tm88HCIvqebnnqDE_D-50">
          <mxGeometry width="50" height="50" relative="1" as="geometry">
            <mxPoint x="430" y="-300" as="sourcePoint" />
            <mxPoint x="480" y="-350" as="targetPoint" />
            <Array as="points">
              <mxPoint x="525" y="-370" />
            </Array>
          </mxGeometry>
        </mxCell>
        <mxCell id="m1Tm88HCIvqebnnqDE_D-55" value="" style="endArrow=classic;html=1;rounded=0;entryX=0.5;entryY=0;entryDx=0;entryDy=0;exitX=0.993;exitY=0.197;exitDx=0;exitDy=0;exitPerimeter=0;" edge="1" parent="WIyWlLk6GJQsqaUBKTNV-1" source="m1Tm88HCIvqebnnqDE_D-45" target="m1Tm88HCIvqebnnqDE_D-51">
          <mxGeometry width="50" height="50" relative="1" as="geometry">
            <mxPoint x="430" y="-300" as="sourcePoint" />
            <mxPoint x="480" y="-350" as="targetPoint" />
            <Array as="points">
              <mxPoint x="725" y="-440" />
            </Array>
          </mxGeometry>
        </mxCell>
        <mxCell id="m1Tm88HCIvqebnnqDE_D-57" value="" style="endArrow=classic;html=1;rounded=0;" edge="1" parent="WIyWlLk6GJQsqaUBKTNV-1">
          <mxGeometry width="50" height="50" relative="1" as="geometry">
            <mxPoint x="710" y="-280" as="sourcePoint" />
            <mxPoint x="690" y="-60" as="targetPoint" />
            <Array as="points">
              <mxPoint x="690" y="-230" />
            </Array>
          </mxGeometry>
        </mxCell>
        <mxCell id="m1Tm88HCIvqebnnqDE_D-62" style="rounded=0;orthogonalLoop=1;jettySize=auto;html=1;exitX=0.5;exitY=0;exitDx=0;exitDy=0;exitPerimeter=0;endArrow=none;startFill=0;" edge="1" parent="WIyWlLk6GJQsqaUBKTNV-1" source="m1Tm88HCIvqebnnqDE_D-2">
          <mxGeometry relative="1" as="geometry">
            <mxPoint x="900" y="-40" as="targetPoint" />
          </mxGeometry>
        </mxCell>
        <mxCell id="m1Tm88HCIvqebnnqDE_D-63" value="" style="endArrow=none;dashed=1;html=1;dashPattern=1 3;strokeWidth=2;rounded=0;entryX=0;entryY=0;entryDx=0;entryDy=0;" edge="1" parent="WIyWlLk6GJQsqaUBKTNV-1" target="m1Tm88HCIvqebnnqDE_D-46">
          <mxGeometry width="50" height="50" relative="1" as="geometry">
            <mxPoint x="720" y="-220" as="sourcePoint" />
            <mxPoint x="480" y="-130" as="targetPoint" />
          </mxGeometry>
        </mxCell>
        <mxCell id="m1Tm88HCIvqebnnqDE_D-64" value="" style="endArrow=none;dashed=1;html=1;dashPattern=1 3;strokeWidth=2;rounded=0;exitX=0.991;exitY=0.567;exitDx=0;exitDy=0;exitPerimeter=0;" edge="1" parent="WIyWlLk6GJQsqaUBKTNV-1" source="m1Tm88HCIvqebnnqDE_D-52">
          <mxGeometry width="50" height="50" relative="1" as="geometry">
            <mxPoint x="430" y="-80" as="sourcePoint" />
            <mxPoint x="720" y="-220" as="targetPoint" />
          </mxGeometry>
        </mxCell>
        <mxCell id="m1Tm88HCIvqebnnqDE_D-65" value="" style="endArrow=none;dashed=1;html=1;dashPattern=1 3;strokeWidth=2;rounded=0;" edge="1" parent="WIyWlLk6GJQsqaUBKTNV-1">
          <mxGeometry width="50" height="50" relative="1" as="geometry">
            <mxPoint x="720" y="-220" as="sourcePoint" />
            <mxPoint x="740" y="-280" as="targetPoint" />
          </mxGeometry>
        </mxCell>
        <mxCell id="m1Tm88HCIvqebnnqDE_D-68" value="Execution Model" style="swimlane;whiteSpace=wrap;html=1;" vertex="1" parent="WIyWlLk6GJQsqaUBKTNV-1">
          <mxGeometry x="-50" y="640" width="205" height="120" as="geometry" />
        </mxCell>
        <mxCell id="m1Tm88HCIvqebnnqDE_D-70" value="Timestamp" style="text;strokeColor=none;fillColor=none;align=left;verticalAlign=middle;spacingLeft=4;spacingRight=4;overflow=hidden;points=[[0,0.5],[1,0.5]];portConstraint=eastwest;rotatable=0;whiteSpace=wrap;html=1;" vertex="1" parent="WIyWlLk6GJQsqaUBKTNV-1">
          <mxGeometry x="870" y="-80" width="240" height="30" as="geometry" />
        </mxCell>
        <mxCell id="m1Tm88HCIvqebnnqDE_D-47" value="CurrentDirectionProbabilityLong" style="text;strokeColor=none;fillColor=none;align=left;verticalAlign=middle;spacingLeft=4;spacingRight=4;overflow=hidden;points=[[0,0.5],[1,0.5]];portConstraint=eastwest;rotatable=0;whiteSpace=wrap;html=1;" vertex="1" parent="WIyWlLk6GJQsqaUBKTNV-1">
          <mxGeometry x="870" y="-170" width="240" height="30" as="geometry" />
        </mxCell>
        <mxCell id="m1Tm88HCIvqebnnqDE_D-48" value="CurrentDirectionProbabilityShort" style="text;strokeColor=none;fillColor=none;align=left;verticalAlign=middle;spacingLeft=4;spacingRight=4;overflow=hidden;points=[[0,0.5],[1,0.5]];portConstraint=eastwest;rotatable=0;whiteSpace=wrap;html=1;" vertex="1" parent="WIyWlLk6GJQsqaUBKTNV-1">
          <mxGeometry x="870" y="-140" width="240" height="30" as="geometry" />
        </mxCell>
        <mxCell id="m1Tm88HCIvqebnnqDE_D-49" value="CurrentMagnitudePrediction" style="text;strokeColor=none;fillColor=none;align=left;verticalAlign=middle;spacingLeft=4;spacingRight=4;overflow=hidden;points=[[0,0.5],[1,0.5]];portConstraint=eastwest;rotatable=0;whiteSpace=wrap;html=1;" vertex="1" parent="WIyWlLk6GJQsqaUBKTNV-1">
          <mxGeometry x="870" y="-110" width="240" height="30" as="geometry" />
        </mxCell>
        <mxCell id="m1Tm88HCIvqebnnqDE_D-71" value="Time Manager" style="swimlane;whiteSpace=wrap;html=1;" vertex="1" parent="WIyWlLk6GJQsqaUBKTNV-1">
          <mxGeometry x="260" y="-130" width="180" height="120" as="geometry" />
        </mxCell>
        <mxCell id="m1Tm88HCIvqebnnqDE_D-83" value="Defines current time&lt;div&gt;so that time can be&amp;nbsp;&lt;/div&gt;&lt;div&gt;&#39;replayed&#39; for historical&lt;/div&gt;&lt;div&gt;analysis&lt;/div&gt;" style="text;html=1;align=center;verticalAlign=middle;resizable=0;points=[];autosize=1;strokeColor=none;fillColor=none;" vertex="1" parent="m1Tm88HCIvqebnnqDE_D-71">
          <mxGeometry x="20" y="25" width="140" height="70" as="geometry" />
        </mxCell>
        <mxCell id="m1Tm88HCIvqebnnqDE_D-72" value="" style="endArrow=classic;html=1;rounded=0;entryX=0;entryY=0.5;entryDx=0;entryDy=0;" edge="1" parent="WIyWlLk6GJQsqaUBKTNV-1" target="m1Tm88HCIvqebnnqDE_D-4">
          <mxGeometry width="50" height="50" relative="1" as="geometry">
            <mxPoint x="440" y="-60" as="sourcePoint" />
            <mxPoint x="490" y="-110" as="targetPoint" />
          </mxGeometry>
        </mxCell>
        <mxCell id="m1Tm88HCIvqebnnqDE_D-73" value="" style="endArrow=classic;html=1;rounded=0;entryX=0.5;entryY=1;entryDx=0;entryDy=0;" edge="1" parent="WIyWlLk6GJQsqaUBKTNV-1" target="m1Tm88HCIvqebnnqDE_D-45">
          <mxGeometry width="50" height="50" relative="1" as="geometry">
            <mxPoint x="290" y="-130" as="sourcePoint" />
            <mxPoint x="340" y="-180" as="targetPoint" />
          </mxGeometry>
        </mxCell>
        <mxCell id="m1Tm88HCIvqebnnqDE_D-74" value="" style="endArrow=classic;startArrow=none;html=1;rounded=0;startFill=0;" edge="1" parent="WIyWlLk6GJQsqaUBKTNV-1" target="m1Tm88HCIvqebnnqDE_D-44">
          <mxGeometry width="50" height="50" relative="1" as="geometry">
            <mxPoint x="430" y="535" as="sourcePoint" />
            <mxPoint x="480" y="485" as="targetPoint" />
          </mxGeometry>
        </mxCell>
        <mxCell id="m1Tm88HCIvqebnnqDE_D-77" value="" style="endArrow=classic;startArrow=classic;html=1;rounded=0;entryX=0;entryY=0.5;entryDx=0;entryDy=0;" edge="1" parent="WIyWlLk6GJQsqaUBKTNV-1" target="m1Tm88HCIvqebnnqDE_D-44">
          <mxGeometry width="50" height="50" relative="1" as="geometry">
            <mxPoint x="155" y="700" as="sourcePoint" />
            <mxPoint x="205" y="650" as="targetPoint" />
          </mxGeometry>
        </mxCell>
        <mxCell id="m1Tm88HCIvqebnnqDE_D-80" style="edgeStyle=orthogonalEdgeStyle;rounded=0;orthogonalLoop=1;jettySize=auto;html=1;exitX=0;exitY=0.5;exitDx=0;exitDy=0;" edge="1" parent="WIyWlLk6GJQsqaUBKTNV-1" source="m1Tm88HCIvqebnnqDE_D-78" target="m1Tm88HCIvqebnnqDE_D-33">
          <mxGeometry relative="1" as="geometry" />
        </mxCell>
        <mxCell id="m1Tm88HCIvqebnnqDE_D-78" value="Portfolio Risk Management" style="swimlane;whiteSpace=wrap;html=1;" vertex="1" parent="WIyWlLk6GJQsqaUBKTNV-1">
          <mxGeometry x="480" y="230" width="327" height="120" as="geometry" />
        </mxCell>
        <mxCell id="m1Tm88HCIvqebnnqDE_D-81" value="Evaluates current signal predictions against open&amp;nbsp;&lt;div&gt;positions&amp;nbsp;&lt;span style=&quot;background-color: transparent; color: light-dark(rgb(0, 0, 0), rgb(255, 255, 255));&quot;&gt;and balances to estimate risk. Closing&lt;/span&gt;&lt;/div&gt;&lt;div&gt;&lt;span style=&quot;background-color: transparent; color: light-dark(rgb(0, 0, 0), rgb(255, 255, 255));&quot;&gt;positions as risk increases&lt;/span&gt;&lt;/div&gt;" style="text;html=1;align=center;verticalAlign=middle;resizable=0;points=[];autosize=1;strokeColor=none;fillColor=none;" vertex="1" parent="m1Tm88HCIvqebnnqDE_D-78">
          <mxGeometry x="18.5" y="25" width="290" height="60" as="geometry" />
        </mxCell>
        <mxCell id="m1Tm88HCIvqebnnqDE_D-82" value="" style="endArrow=classic;startArrow=classic;html=1;rounded=0;entryX=0.5;entryY=1;entryDx=0;entryDy=0;exitX=0.885;exitY=-0.031;exitDx=0;exitDy=0;exitPerimeter=0;" edge="1" parent="WIyWlLk6GJQsqaUBKTNV-1" source="m1Tm88HCIvqebnnqDE_D-44" target="m1Tm88HCIvqebnnqDE_D-78">
          <mxGeometry width="50" height="50" relative="1" as="geometry">
            <mxPoint x="430" y="450" as="sourcePoint" />
            <mxPoint x="480" y="400" as="targetPoint" />
          </mxGeometry>
        </mxCell>
      </root>
    </mxGraphModel>
  </diagram>
</mxfile>
